<svg xmlns="http://www.w3.org/2000/svg" width="1280" height="720" viewBox="0 0 1280 720" font-family="'Segoe UI', 'Helvetica Neue', Arial, sans-serif">
  <rect width="1280" height="720" fill="#f5f7fb" />
  <rect x="40" y="40" width="1200" height="80" rx="12" fill="#ffffff" stroke="#d3dae6" />
  <text x="80" y="95" font-size="40" font-weight="600" fill="#1f2933">Neutryx Pricing Dashboard</text>
  <rect x="40" y="140" width="400" height="520" rx="18" fill="#ffffff" stroke="#d3dae6" />
  <text x="70" y="185" font-size="22" fill="#475569">Market Inputs</text>
  <g font-size="18" fill="#1f2933">
    <text x="70" y="225">Spot</text>
    <rect x="70" y="235" width="300" height="34" rx="8" fill="#eef2ff" stroke="#c7d2fe" />
    <text x="80" y="258">100.00</text>

    <text x="70" y="295">Strike</text>
    <rect x="70" y="305" width="300" height="34" rx="8" fill="#eef2ff" stroke="#c7d2fe" />
    <text x="80" y="328">100.00</text>

    <text x="70" y="365">Maturity (years)</text>
    <rect x="70" y="375" width="300" height="10" fill="#3b82f6" rx="5" />
    <rect x="70" y="375" width="300" height="10" fill="#dbeafe" rx="5" opacity="0.4" />

    <text x="70" y="415">Risk-free rate</text>
    <rect x="70" y="425" width="300" height="10" fill="#22c55e" rx="5" />
    <rect x="70" y="425" width="300" height="10" fill="#dcfce7" rx="5" opacity="0.4" />

    <text x="70" y="465">Dividend yield</text>
    <rect x="70" y="475" width="300" height="10" fill="#a855f7" rx="5" />
    <rect x="70" y="475" width="300" height="10" fill="#f3e8ff" rx="5" opacity="0.5" />

    <text x="70" y="515">Volatility</text>
    <rect x="70" y="525" width="300" height="10" fill="#f97316" rx="5" />
    <rect x="70" y="525" width="300" height="10" fill="#ffedd5" rx="5" opacity="0.5" />

    <text x="70" y="565">Scenario shifts</text>
    <rect x="70" y="575" width="300" height="10" fill="#0ea5e9" rx="5" />
    <rect x="70" y="575" width="300" height="10" fill="#e0f2fe" rx="5" opacity="0.4" />
  </g>
  <rect x="480" y="140" width="760" height="520" rx="18" fill="#ffffff" stroke="#d3dae6" />
  <text x="510" y="185" font-size="22" fill="#475569">Scenario comparison</text>
  <rect x="510" y="205" width="700" height="200" rx="12" fill="#f8fafc" stroke="#d3dae6" />
  <g font-size="18" fill="#1f2933">
    <text x="530" y="235" font-weight="600">Scenario</text>
    <text x="700" y="235" font-weight="600">Spot</text>
    <text x="820" y="235" font-weight="600">Volatility</text>
    <text x="980" y="235" font-weight="600">Price</text>
    <text x="530" y="270">Base</text>
    <text x="700" y="270">100.00</text>
    <text x="820" y="270">0.20</text>
    <text x="980" y="270">10.45</text>
    <text x="530" y="305">Spot Up</text>
    <text x="700" y="305">105.00</text>
    <text x="820" y="305">0.20</text>
    <text x="980" y="305">15.81</text>
    <text x="530" y="340">Spot Down</text>
    <text x="700" y="340">95.00</text>
    <text x="820" y="340">0.20</text>
    <text x="980" y="340">6.42</text>
    <text x="530" y="375">Vol Up</text>
    <text x="700" y="375">100.00</text>
    <text x="820" y="375">0.22</text>
    <text x="980" y="375">12.64</text>
    <text x="530" y="410">Vol Down</text>
    <text x="700" y="410">100.00</text>
    <text x="820" y="410">0.18</text>
    <text x="980" y="410">8.63</text>
  </g>
  <text x="510" y="455" font-size="22" fill="#475569">Strike sweep</text>
  <rect x="510" y="475" width="700" height="165" rx="12" fill="#f8fafc" stroke="#d3dae6" />
  <polyline fill="none" stroke="#2563eb" stroke-width="4" points="530,610 620,590 710,560 800,520 890,470 980,450 1070,440 1180,430" />
  <line x1="530" y1="612" x2="1180" y2="612" stroke="#cbd5e1" stroke-width="2" />
  <line x1="530" y1="500" x2="530" y2="612" stroke="#cbd5e1" stroke-width="2" />
</svg>
